<svg xmlns="http://www.w3.org/2000/svg" width="36" height="36" viewBox="0 0 36 36"><defs><style>.a{fill:#f23801;}.b{fill:#fff;}</style></defs><circle class="a" cx="18" cy="18" r="18"/><path class="b" d="M23.281,13.69H11.525l4.56-4.362a1.817,1.817,0,0,0,0-2.483,1.624,1.624,0,0,0-2.373,0L6.119,14.206a1.673,1.673,0,0,0-.494,1.231v.022a1.673,1.673,0,0,0,.494,1.231l7.586,7.361a1.624,1.624,0,0,0,2.373,0,1.817,1.817,0,0,0,0-2.483l-4.56-4.362H23.275a1.72,1.72,0,0,0,1.681-1.758A1.7,1.7,0,0,0,23.281,13.69Z" transform="translate(2.671 2.59)"/></svg>