<svg xmlns="http://www.w3.org/2000/svg" width="42.009" height="52.896" viewBox="0 0 42.009 52.896"><defs><style>.a{fill:#ff8585;}.b{fill:#ffe9e4;}.c{fill:#f23801;}</style></defs><g transform="translate(-302.991 -403)"><path class="a" d="M20.909,12.695V0H2.24A2.235,2.235,0,0,0,0,2.24V45.551a2.235,2.235,0,0,0,2.24,2.24H33.6a2.235,2.235,0,0,0,2.24-2.24V14.935H23.149A2.247,2.247,0,0,1,20.909,12.695Zm5.974,22.029a1.123,1.123,0,0,1-1.12,1.12H10.081a1.123,1.123,0,0,1-1.12-1.12v-.747a1.123,1.123,0,0,1,1.12-1.12H25.762a1.123,1.123,0,0,1,1.12,1.12Zm0-5.974a1.123,1.123,0,0,1-1.12,1.12H10.081a1.123,1.123,0,0,1-1.12-1.12V28a1.123,1.123,0,0,1,1.12-1.12H25.762A1.123,1.123,0,0,1,26.883,28Zm0-6.721v.747a1.123,1.123,0,0,1-1.12,1.12H10.081a1.123,1.123,0,0,1-1.12-1.12v-.747a1.123,1.123,0,0,1,1.12-1.12H25.762A1.123,1.123,0,0,1,26.883,22.029Zm8.961-10.65v.569H23.9V0h.569a2.239,2.239,0,0,1,1.587.653L35.19,9.8A2.233,2.233,0,0,1,35.843,11.378Z" transform="translate(302.991 408.104)"/><rect class="b" width="31" height="42" transform="translate(314 403)"/><path class="c" d="M20.909,12.695V0H2.24A2.235,2.235,0,0,0,0,2.24V45.551a2.235,2.235,0,0,0,2.24,2.24H33.6a2.235,2.235,0,0,0,2.24-2.24V14.935H23.149A2.247,2.247,0,0,1,20.909,12.695Zm5.974,22.029a1.123,1.123,0,0,1-1.12,1.12H10.081a1.123,1.123,0,0,1-1.12-1.12v-.747a1.123,1.123,0,0,1,1.12-1.12H25.762a1.123,1.123,0,0,1,1.12,1.12Zm0-5.974a1.123,1.123,0,0,1-1.12,1.12H10.081a1.123,1.123,0,0,1-1.12-1.12V28a1.123,1.123,0,0,1,1.12-1.12H25.762A1.123,1.123,0,0,1,26.883,28Zm0-6.721v.747a1.123,1.123,0,0,1-1.12,1.12H10.081a1.123,1.123,0,0,1-1.12-1.12v-.747a1.123,1.123,0,0,1,1.12-1.12H25.762A1.123,1.123,0,0,1,26.883,22.029Zm8.961-10.65v.569H23.9V0h.569a2.239,2.239,0,0,1,1.587.653L35.19,9.8A2.233,2.233,0,0,1,35.843,11.378Z" transform="translate(308.991 403.104)"/></g></svg>