<svg xmlns="http://www.w3.org/2000/svg" width="67.75" height="41.896" viewBox="0 0 67.75 41.896"><defs><style>.a{fill:#ff8585;}.b{fill:#f23801;}</style></defs><g transform="translate(-541.999 -202)"><path class="a" d="M15.213,17.114A8.557,8.557,0,1,0,6.656,8.557,8.559,8.559,0,0,0,15.213,17.114Zm7.606,1.9H19.545a10.344,10.344,0,0,1-8.664,0H7.606A7.606,7.606,0,0,0,0,26.622v.951a2.853,2.853,0,0,0,2.852,2.852h24.72a2.853,2.853,0,0,0,2.852-2.852v-.951A7.606,7.606,0,0,0,22.819,19.016Z" transform="translate(579.324 213.471)"/><path class="a" d="M15.213,17.114A8.557,8.557,0,1,0,6.656,8.557,8.559,8.559,0,0,0,15.213,17.114Zm7.606,1.9H19.545a10.344,10.344,0,0,1-8.664,0H7.606A7.606,7.606,0,0,0,0,26.622v.951a2.853,2.853,0,0,0,2.852,2.852h24.72a2.853,2.853,0,0,0,2.852-2.852v-.951A7.606,7.606,0,0,0,22.819,19.016Z" transform="translate(541.999 213.471)"/><path class="b" d="M20.948,23.566A11.783,11.783,0,1,0,9.165,11.783,11.786,11.786,0,0,0,20.948,23.566Zm10.474,2.618H26.913a14.244,14.244,0,0,1-11.93,0H10.474A10.473,10.473,0,0,0,0,36.659v1.309A3.929,3.929,0,0,0,3.928,41.9h34.04A3.929,3.929,0,0,0,41.9,37.968V36.659A10.473,10.473,0,0,0,31.422,26.185Z" transform="translate(554.8 202)"/></g></svg>