<svg xmlns="http://www.w3.org/2000/svg" width="30.459" height="18.836" viewBox="0 0 30.459 18.836"><defs><style>.a{fill:#ff8585;}.b{fill:#f23801;}</style></defs><g transform="translate(-541.999 -202)"><path class="a" d="M6.839,7.694A3.847,3.847,0,1,0,2.992,3.847,3.848,3.848,0,0,0,6.839,7.694Zm3.42.855H8.787a4.651,4.651,0,0,1-3.9,0H3.42A3.419,3.419,0,0,0,0,11.969V12.4a1.283,1.283,0,0,0,1.282,1.282H12.4A1.283,1.283,0,0,0,13.679,12.4v-.427A3.419,3.419,0,0,0,10.259,8.549Z" transform="translate(558.779 207.157)"/><path class="a" d="M6.839,7.694A3.847,3.847,0,1,0,2.992,3.847,3.848,3.848,0,0,0,6.839,7.694Zm3.42.855H8.787a4.651,4.651,0,0,1-3.9,0H3.42A3.419,3.419,0,0,0,0,11.969V12.4a1.283,1.283,0,0,0,1.282,1.282H12.4A1.283,1.283,0,0,0,13.679,12.4v-.427A3.419,3.419,0,0,0,10.259,8.549Z" transform="translate(541.999 207.157)"/><path class="b" d="M9.418,10.6a5.3,5.3,0,1,0-5.3-5.3A5.3,5.3,0,0,0,9.418,10.6Zm4.709,1.177H12.1a6.4,6.4,0,0,1-5.364,0H4.709A4.709,4.709,0,0,0,0,16.481v.589a1.766,1.766,0,0,0,1.766,1.766h15.3a1.766,1.766,0,0,0,1.766-1.766v-.589A4.709,4.709,0,0,0,14.127,11.772Z" transform="translate(547.754 202)"/></g></svg>