<svg xmlns="http://www.w3.org/2000/svg" width="35.624" height="46.498" viewBox="0 0 35.624 46.498"><defs><style>.a{fill:#f23801;}.b{fill:#ffe9e4;}.c{fill:#ff8585;}</style></defs><g transform="translate(-797.991 -194.849)"><g transform="translate(-3 -11.29)"><g transform="translate(800.991 213.239)"><g transform="translate(0 0)"><path class="a" d="M17.237,10.465V0H1.847A1.842,1.842,0,0,0,0,1.847v35.7A1.842,1.842,0,0,0,1.847,39.4H27.7a1.842,1.842,0,0,0,1.847-1.847V12.312H19.084A1.852,1.852,0,0,1,17.237,10.465Zm4.925,18.16a.926.926,0,0,1-.923.923H8.311a.926.926,0,0,1-.923-.923V28.01a.926.926,0,0,1,.923-.923H21.238a.926.926,0,0,1,.923.923Zm0-4.925a.926.926,0,0,1-.923.923H8.311a.926.926,0,0,1-.923-.923v-.616a.926.926,0,0,1,.923-.923H21.238a.926.926,0,0,1,.923.923Zm0-5.54v.616a.926.926,0,0,1-.923.923H8.311a.926.926,0,0,1-.923-.923V18.16a.926.926,0,0,1,.923-.923H21.238A.926.926,0,0,1,22.162,18.16Zm7.387-8.78V9.85H19.7V0h.469a1.845,1.845,0,0,1,1.308.539L29.01,8.08A1.841,1.841,0,0,1,29.549,9.38Z" transform="translate(0 0)"/></g></g></g><g transform="translate(-10.03 81.046)"><circle class="b" cx="8.5" cy="8.5" r="8.5" transform="translate(824 117)"/><path class="c" d="M22.714,11.638A11.076,11.076,0,1,1,11.638.563,11.075,11.075,0,0,1,22.714,11.638ZM11.935,4.225A5.785,5.785,0,0,0,6.73,7.072a.537.537,0,0,0,.121.726L8.4,8.973a.536.536,0,0,0,.744-.095c.8-1.012,1.345-1.6,2.559-1.6.912,0,2.041.587,2.041,1.472,0,.669-.552,1.012-1.453,1.517-1.051.589-2.441,1.322-2.441,3.156V13.6a.536.536,0,0,0,.536.536h2.5a.536.536,0,0,0,.536-.536v-.06c0-1.271,3.715-1.324,3.715-4.764C17.14,6.19,14.453,4.225,11.935,4.225Zm-.3,11.076a2.054,2.054,0,1,0,2.054,2.054A2.057,2.057,0,0,0,11.638,15.3Z" transform="translate(820.931 113.24)"/></g></g></svg>