<svg xmlns="http://www.w3.org/2000/svg" xmlns:xlink="http://www.w3.org/1999/xlink" width="184.049" height="47.972" viewBox="0 0 184.049 47.972"><defs><style>.a,.e{fill:#404041;}.a{font-size:13px;font-family:Roboto-Medium, Roboto;font-weight:500;}.b,.f{fill:#f23801;}.c{fill:url(#a);}.d{fill:url(#b);}.e,.f{font-size:25px;font-family:Exo-Black, Exo;font-weight:800;}</style><linearGradient id="a" x1="-0.103" y1="1.3" x2="1.062" y2="0.267" gradientUnits="objectBoundingBox"><stop offset="0" stop-color="#ff5a29"/><stop offset="0.317" stop-color="#e54b1d"/><stop offset="0.989" stop-color="#a42500"/><stop offset="1" stop-color="#a32500"/></linearGradient><linearGradient id="b" x1="0.792" y1="0.5" x2="-2.098" y2="0.501" gradientUnits="objectBoundingBox"><stop offset="0.025" stop-color="#ff4a14"/><stop offset="0.074" stop-color="#f64612"/><stop offset="0.153" stop-color="#dd3d0d"/><stop offset="0.253" stop-color="#b62e06"/><stop offset="0.325" stop-color="#962200"/></linearGradient></defs><g transform="translate(-15.951 -38.147)"><text class="a" transform="translate(78 80)"><tspan x="0" y="0">Project Management</tspan></text><g transform="translate(17.951 42.475)"><g transform="translate(0 0)"><g transform="translate(-2 -4.329)"><g transform="translate(0 3.458)"><path class="b" d="M7.366,28.48h9.907a12.191,12.191,0,0,0,10.541,6.3A12.021,12.021,0,0,0,37.257,30.1L45.3,34.579a20.905,20.905,0,0,1-17.6,9.935C18.106,44.514,10,37.757,7.366,28.48Zm-.542-3.8a26.721,26.721,0,0,1-.17-3.014c0-.283,0-.566.017-.846H32.62v-.007a5.791,5.791,0,0,0,.6.03,6.3,6.3,0,0,0,6.1-6.479,6.3,6.3,0,0,0-6.1-6.481c-.028,0-.058,0-.087,0a7.677,7.677,0,0,0-6.774-3.89,7.406,7.406,0,0,0-7.6,6.893,4.747,4.747,0,0,0-4.222,4.843,5.1,5.1,0,0,0,.216,1.474H4.937a1.886,1.886,0,0,1-1.858-1.912A1.808,1.808,0,0,1,4.86,13.458H8.169a22.254,22.254,0,0,1,.993-2.206H1.843A1.879,1.879,0,0,1,0,9.34,1.8,1.8,0,0,1,1.767,7.507h9.846c.216-.265.436-.527.663-.781A19.784,19.784,0,0,1,27.044,0C38.3,0,47.43,9.7,47.43,21.664a23.558,23.558,0,0,1-.064,2.716c0,.03-.1.267-.106.3Z" transform="translate(3.699)"/><path class="c" d="M86.246,161.128h-31c-.12,0-.232,0-.34-.01a1.946,1.946,0,0,1-1.574-1.857c0-.076,0-.15.006-.22a.174.174,0,0,1,0-.033,1.946,1.946,0,0,1,1.593-1.718c.059,0,.12,0,.184,0s.145-.008.224-.008H85.322c.192,0,.38,0,.562-.013,3.735-.031,5.521-2.819,6.1-5.5.011-.038.017-.074.025-.114.021-.1.055-.207.074-.313l.017.059C94.028,157.786,93.169,161.128,86.246,161.128Z" transform="translate(-48.936 -136.451)"/><path class="d" d="M1.851,0H3.773A1.808,1.808,0,0,1,5.581,1.808v0A1.938,1.938,0,0,1,3.643,3.745H1.894A1.894,1.894,0,0,1,0,1.851v0A1.851,1.851,0,0,1,1.851,0Z" transform="translate(0 13.458)"/></g><text class="e" transform="translate(62.996 25)"><tspan x="0" y="0">Erisn</tspan></text><text class="f" transform="translate(126.392 25)"><tspan x="0" y="0">Tech</tspan></text></g></g></g></g></svg>