<svg xmlns="http://www.w3.org/2000/svg" xmlns:xlink="http://www.w3.org/1999/xlink" width="505.68" height="337.396" viewBox="0 0 505.68 337.396"><defs><style>.a{fill:#ff8585;}.b{fill:#f23801;}.c{fill:#8f8f8f;}.d{fill:#f1f1f1;}.e{fill:#fff;}.f{fill:url(#a);}.g{fill:#ccc;}.h{fill:#f5f7ff;}.i{fill:#e6e6e6;}.j{fill:#f3f3f3;}.k{fill:#404041;}.l{fill:#4d4d4d;}.m{fill:#eea886;}.n{fill:#db9c7c;}.o{fill:#4da8f2;}.p{fill:#efaa88;}.q{fill:#424773;}.r{fill:#292c47;}.s{fill:#212121;}.t{fill:#e2d2ca;}.u{fill:#dfe1e8;}.v{fill:#de9673;}.w{fill:#2f4563;}.x{fill:#1e2d40;}.y{fill:#23344a;}.z{fill:#41608a;}.aa{fill:#eea987;}.ab{fill:#eb4747;}.ac{fill:#a77860;}.ad{fill:#6e6760;}.ae{fill:#5c544d;}.af{fill:#3c4145;}.ag{fill:#d6d6d6;}.ah{fill:#c98462;}.ai{fill:#de9d7d;}.aj{fill:#1d3b54;}.ak{fill:#434343;}.al{fill:#cf8c6c;}.am{fill:#eef0f7;}.an{fill:#f5481d;}.ao{fill:#e0e0e0;}.ap{fill:#b8b8b8;}.aq{fill:#d9d9d9;}.ar{fill:#a5a5a5;}</style><linearGradient id="a" y1="0.5" x2="1" y2="0.5" gradientUnits="objectBoundingBox"><stop offset="0" stop-color="#f23801"/><stop offset="1" stop-color="#ff8585"/></linearGradient></defs><g transform="translate(-804.33 -402.862)"><g transform="translate(804.33 402.862)"><g transform="translate(0 0)"><g transform="translate(33.223 45.553)"><path class="a" d="M466.525,727.622c6.216,13.564,9.708,26.4,5.131,32.125a7.444,7.444,0,0,1-.885.93c-3.526,3.106-10.459,3.176-22.165-1.448-31.154-12.306-32.633-33.544-38.934-54.284-6.212-20.48-27.91-17.02-28.463-16.927C431.768,670.409,455.98,704.627,466.525,727.622Z" transform="translate(-381.21 -683.161)"/><g transform="translate(44.301 18.903)"><path class="a" d="M606.653,817.35a7.432,7.432,0,0,1-.886.93c-5.852-3.525-17.057-11-22.341-19.39a124.563,124.563,0,0,1-6.808-13.124c-4.191-8.91-8.535-18.123-16.112-25.189l.845-.911c7.751,7.234,12.14,16.555,16.386,25.573a121.3,121.3,0,0,0,6.738,12.988C589.627,806.414,600.949,813.917,606.653,817.35Z" transform="translate(-560.507 -759.667)"/></g></g><g transform="translate(75.788 16.609)"><path class="b" d="M590.822,644.963c-.367.9-.6,1.414-.63,1.471-.1-.5-.189-.993-.283-1.47-4.156-21.295-9.714-23.519-26.378-42.147-17.042-19.052-7.241-36.8-7.241-36.8C613.383,582.512,594.7,635.444,590.822,644.963Z" transform="translate(-553.485 -566.016)"/><g transform="translate(16.684 22.241)"><path class="b" d="M641.663,712.739c-.367.9-.6,1.414-.63,1.471-.1-.5-.189-.992-.283-1.47,1.849-18.409-9.257-40.011-12.746-43.888-3.611-4.015-5.836-9.534-6.676-11.614-.142-.345-.274-.673-.317-.75l.8-.455c.071.125.163.354.369.859.821,2.037,3.006,7.447,6.509,11.337C633.115,673.145,643.36,694.851,641.663,712.739Z" transform="translate(-621.01 -656.033)"/></g></g><g transform="translate(235.939 182.054)"><rect class="c" width="34.501" height="104.792" transform="translate(34.501 104.792) rotate(180)"/></g><g transform="translate(104.231 22.368)"><path class="d" d="M53.7,0H244.22a53.7,53.7,0,0,1,53.7,53.7V156.468a53.7,53.7,0,0,1-53.7,53.7H53.7A53.7,53.7,0,0,1,0,156.469V53.7A53.7,53.7,0,0,1,53.7,0Z" transform="translate(297.917 210.165) rotate(180)"/></g><g transform="translate(115.899 0)"><rect class="e" width="274.582" height="199.599" transform="translate(274.582 199.599) rotate(180)"/></g><g transform="translate(115.899 0)"><rect class="f" width="274.582" height="24.108" transform="translate(274.582 24.108) rotate(180)"/></g><g transform="translate(357.066 205.06)"><path class="g" d="M1691.895,1338.34c0,5.307,5.059,9.61,11.3,9.61s11.3-4.3,11.3-9.61-5.059-9.61-11.3-9.61S1691.895,1333.032,1691.895,1338.34Z" transform="translate(-1691.895 -1328.73)"/></g><rect class="g" width="155.216" height="7.91" transform="translate(175.582 282.891)"/><rect class="h" width="39.163" height="9.11" rx="4.555" transform="translate(127.367 7.499)"/><rect class="i" width="143.76" height="4.942" transform="translate(136.016 108.107)"/><rect class="i" width="106.626" height="4.941" transform="translate(136.016 117.007)"/><rect class="i" width="67.609" height="4.942" transform="translate(136.016 136.346)"/><rect class="i" width="121.465" height="4.942" transform="translate(136.016 145.246)"/><rect class="i" width="113.787" height="4.941" transform="translate(136.016 166.512)"/><rect class="i" width="138.946" height="4.942" transform="translate(136.016 175.411)"/><rect class="i" width="3.612" height="13.842" transform="translate(129.001 108.107)"/><rect class="i" width="3.612" height="13.842" transform="translate(129.001 136.346)"/><rect class="i" width="3.612" height="13.841" transform="translate(129.001 166.512)"/><g transform="translate(311.864 166.785)"><path class="b" d="M9.9,0h0a9.9,9.9,0,0,1,9.9,9.9h0A9.9,9.9,0,1,1,0,9.9H0A9.9,9.9,0,0,1,9.9,0Z"/><g transform="translate(3.929 5.539)"><path class="j" d="M1530.2,1204.962l-5.006-4.364a.986.986,0,0,1,1.3-1.487l3.54,3.086,5.048-5.631a.986.986,0,0,1,1.468,1.317Z" transform="translate(-1524.853 -1196.24)"/></g></g><g transform="translate(311.855 136.609)"><path class="k" d="M1524.219,1071.512h-10.8a4.517,4.517,0,0,1-4.512-4.513v-10.794a4.517,4.517,0,0,1,4.512-4.513h10.8a4.517,4.517,0,0,1,4.512,4.513V1067A4.517,4.517,0,0,1,1524.219,1071.512Zm-10.8-18.564a3.259,3.259,0,0,0-3.255,3.257V1067a3.259,3.259,0,0,0,3.255,3.256h10.8a3.259,3.259,0,0,0,3.255-3.256v-10.794a3.259,3.259,0,0,0-3.255-3.257Z" transform="translate(-1508.912 -1051.692)"/></g><g transform="translate(341.666 166.775)"><path class="k" d="M1644.876,1193.6h-10.8a4.518,4.518,0,0,1-4.513-4.512V1178.3a4.518,4.518,0,0,1,4.513-4.513h10.8a4.517,4.517,0,0,1,4.512,4.513v10.794A4.516,4.516,0,0,1,1644.876,1193.6Zm-10.8-18.563a3.26,3.26,0,0,0-3.256,3.256v10.794a3.26,3.26,0,0,0,3.256,3.256h10.8a3.259,3.259,0,0,0,3.255-3.256V1178.3a3.259,3.259,0,0,0-3.255-3.256Z" transform="translate(-1629.568 -1173.783)"/></g><g transform="translate(341.677 136.619)"><path class="k" d="M9.9,0a9.9,9.9,0,0,1,9.9,9.9h0a9.9,9.9,0,0,1-9.9,9.9h0A9.9,9.9,0,0,1,0,9.9H0A9.9,9.9,0,0,1,9.9,0Z"/><g transform="translate(3.929 5.539)"><path class="j" d="M1650.857,1082.873l-5.006-4.364a.986.986,0,1,1,1.3-1.487l3.54,3.086,5.048-5.63a.986.986,0,1,1,1.468,1.316Z" transform="translate(-1645.513 -1074.15)"/></g></g><g transform="translate(341.666 106.444)"><path class="k" d="M1644.876,949.424h-10.8a4.518,4.518,0,0,1-4.513-4.512V934.117a4.518,4.518,0,0,1,4.513-4.513h10.8a4.517,4.517,0,0,1,4.512,4.513v10.795A4.516,4.516,0,0,1,1644.876,949.424Zm-10.8-18.564a3.26,3.26,0,0,0-3.256,3.257v10.795a3.26,3.26,0,0,0,3.256,3.256h10.8a3.259,3.259,0,0,0,3.255-3.256V934.117a3.259,3.259,0,0,0-3.255-3.257Z" transform="translate(-1629.568 -929.604)"/></g><g transform="translate(311.864 106.454)"><path class="b" d="M9.9,0h0a9.9,9.9,0,0,1,9.9,9.9v0a9.9,9.9,0,0,1-9.9,9.9h0A9.9,9.9,0,0,1,0,9.9v0A9.9,9.9,0,0,1,9.9,0Z"/><g transform="translate(3.929 5.539)"><path class="j" d="M1530.2,960.784l-5.006-4.364a.986.986,0,0,1,1.3-1.486l3.54,3.086,5.048-5.63a.986.986,0,1,1,1.468,1.316Z" transform="translate(-1524.853 -952.062)"/></g></g><g transform="translate(0 133.389)"><path class="b" d="M436.18,1038.889c-4.674-2.236-9.327,12.646-9.327,12.646-7.945,10.5-19.048-3.468-17.962,12.225,1.9,27.462-31.61,8.636-16.15,37.307s-13.65,16.212-4.043,39.33-2.845,50.691,11.611,39.36c0,0,12.728-27.911,25.854-36.547s-7.864-18.882-3.757-30.612c5.965-17.036,20.338-16.367,9.975-34.675S452.07,1046.488,436.18,1038.889Z" transform="translate(-352.125 -1038.66)"/><g transform="translate(43.009 29.114)"><path class="e" d="M421.414,1257.972c6.266-4.406,13.6-35.115,14.037-53.406.224-9.369,2.994-13.273,5.437-16.717,2.336-3.292,4.353-6.135,3.178-12.663-2.245-12.475,3.659-17.86,3.718-17.913l-.683-.779c-.263.23-6.411,5.784-4.055,18.876,1.1,6.1-.712,8.65-3,11.88-2.4,3.389-5.4,7.605-5.628,17.291-.47,19.63-7.967,48.624-13.6,52.583Z" transform="translate(-420.818 -1156.494)"/></g><g transform="translate(0 71.356)"><path class="a" d="M277.219,1377.738c-.591-1.341-1.2-2.727-1.9-4.19-3.579-7.556-6.75-8.8-12-10.862-1.284-.5-2.739-1.074-4.336-1.793-7.525-3.382-6.068-8.365-4.782-12.762.18-.615.359-1.228.514-1.835.662-2.586-.61-3.883-2.535-5.847a21.956,21.956,0,0,1-4.583-6.145c-1.5-3.14-.736-4.823.17-5.683,1.909-1.809,6.311-1.476,10.467.793h0a15.132,15.132,0,0,1,3.479,3c2.649,2.775,5.947,6.227,14.286,6.266,4.755.022,7.359.679,8.708,2.194,1.531,1.72,1.242,4.3.843,7.86-.138,1.233-.295,2.63-.39,4.139a24.149,24.149,0,0,0,4.8,15.567c3.177,3.782,7.09,11.63,5.4,16.461a5.781,5.781,0,0,1-4.706,3.787,13.379,13.379,0,0,1-2.649.287C282.177,1388.971,280.041,1384.134,277.219,1377.738Zm-19.48-47.415c-3.711-2.026-7.692-2.435-9.257-.95-1.19,1.128-.629,3.061.052,4.483a20.778,20.778,0,0,0,4.389,5.867c2.014,2.055,3.6,3.678,2.8,6.83-.158.618-.34,1.243-.524,1.869-1.28,4.379-2.489,8.515,4.213,11.526,1.574.707,3.017,1.274,4.289,1.773,5.3,2.081,8.806,3.455,12.561,11.383.7,1.475,1.313,2.868,1.908,4.215,3.241,7.347,5.2,11.78,12.285,10.349a4.811,4.811,0,0,0,3.934-3.114c1.488-4.257-2.073-11.709-5.217-15.453a24.751,24.751,0,0,1-5.042-16.3c.1-1.535.255-2.945.394-4.19.369-3.3.636-5.68-.587-7.055-1.118-1.257-3.567-1.827-7.939-1.847-8.779-.041-12.245-3.671-15.03-6.587a14.185,14.185,0,0,0-3.226-2.8Z" transform="translate(-246.748 -1327.459)"/></g><g transform="translate(8.037 79.632)"><path class="a" d="M315.039,1420.172l1.035-.054c-.051-.972-1.356-23.89-10.558-30.6-10.1-7.358-13.278-15.266-14.794-20.574-1.786-6.255-10.878-7.927-11.264-7.995l-.18,1.021c.088.016,8.84,1.628,10.447,7.258,1.558,5.455,4.827,13.58,15.18,21.127C313.712,1396.777,315.027,1419.938,315.039,1420.172Z" transform="translate(-279.278 -1360.952)"/></g><path class="a" d="M316.035,1132.389c6.54-2.242,5.182,10.363,7.945,19.69s30.744,4.069,19,27.423,14.853,7.811,6.909,28.191-.691,42.177-9.327,36.633-4.852-31.209-13.833-34.258-10.447-6.606-1.554-14.9-23.3-16.521-15.356-33.261S308.479,1134.98,316.035,1132.389Z" transform="translate(-293.276 -1109.033)"/><g transform="translate(26.048 52.592)"><path class="e" d="M369.4,1333.238c.822-3.489,7.847-34.193,1.293-37.9-5.776-3.271-5.634-15.994-4.733-28.009.8-10.635-12.861-15.606-13.443-15.812l-.347.977c.135.048,13.494,4.914,12.756,14.758-.925,12.339-1.025,25.431,5.256,28.988,4.977,2.818.395,27.494-1.791,36.765Z" transform="translate(-352.173 -1251.513)"/></g><path class="l" d="M401.279,1538.029l-9.338,35.426H371.074l-9.338-35.426Z" transform="translate(-333.325 -1414.645)"/><path class="k" d="M401.279,1538.029s-20.557,3.86-20.557,35.426h-9.649l-9.338-35.426Z" transform="translate(-333.325 -1414.646)"/></g><g transform="translate(224.756 144.166)"><g transform="translate(0.055 88.249)"><path class="m" d="M1163.3,1440.294a6.243,6.243,0,0,1,.809,2.138,10.272,10.272,0,0,0,.988,2.525,24.04,24.04,0,0,1,1.2,4.209,19.436,19.436,0,0,0-.566,2.818c.1.609.444,1.818-.1,1.9s-1.168-.91-1.168-.91a.8.8,0,0,1-.412.775,1.355,1.355,0,0,1-1.377.05s-.332.617-.749.7a1.7,1.7,0,0,1-1.37-.185,1.66,1.66,0,0,1-1.04.334,1.365,1.365,0,0,1-1.154-.718s-1.029.208-1.328-.272a4.609,4.609,0,0,1-.37-1.427,16.624,16.624,0,0,1,1.3-7.194,6.374,6.374,0,0,0-.34-5.589Z" transform="translate(-1156.622 -1439.446)"/></g><g transform="translate(0 96.211)"><path class="n" d="M1164.44,1476.865s.092-3.526-.836-4.276-1.034.522-1.034.522.126-1.257-.888-1.427-1.057,1.324-1.057,1.324a.98.98,0,0,0-1.231-.771c-1.065.2-.812,1.437-.812,1.437s-1.017-1.214-1.677-.048a5.2,5.2,0,0,0-.04,4.292s.314.533,1.328.272a1.4,1.4,0,0,0,2.195.384s1.553.854,2.119-.515A1.285,1.285,0,0,0,1164.44,1476.865Z" transform="translate(-1156.4 -1471.67)"/></g><path class="k" d="M1175.8,1212.221s-6.035,20.116-8.074,27.536c-.64,2.327-2.188,24.55-2.461,25.445s-7.929,2.121-7.929,2.121.928-27.8,1.014-29.318,8.447-32.563,10.878-33.671c1.821-.83,2.783-.143,5.078,1.561C1177.531,1208.287,1175.8,1212.221,1175.8,1212.221Z" transform="translate(-1157.107 -1173.911)"/><g transform="translate(77.555 1.089)"><rect class="o" width="16.511" height="1.226" transform="translate(0 9.042) rotate(-33.204)"/></g><path class="p" d="M1503.92,1094.879a3.6,3.6,0,0,1-.356,1.095s-.452.54-.75.942a3.375,3.375,0,0,0-.217.321,6.581,6.581,0,0,1-1.141,1.773c-.657.668-3.22,2.79-3.22,2.79l-2.2-1.864-2.28-1.021s1.276-5.548,1.818-6.241a2.2,2.2,0,0,1,.165-.189,8.435,8.435,0,0,1,1.429-.983c.112-.093,1.285-.937,1.7-.828a1.411,1.411,0,0,1,1.053.879,3.376,3.376,0,0,1,1.561,1,2.1,2.1,0,0,1,1.357,1.26S1503.874,1094.225,1503.92,1094.879Z" transform="translate(-1410.405 -1088.591)"/><g transform="translate(6.57 175.163)"><path class="q" d="M1190.218,1791.7s-.55,3.819-.619,4.392-6.12-.338-6.12-.338l-.49-4.546S1189.462,1791.162,1190.218,1791.7Z" transform="translate(-1182.989 -1791.208)"/></g><g transform="translate(5.624 179.304)"><path class="r" d="M1186.782,1808.227a16.344,16.344,0,0,0,3.772,3.3c1.854,1,4.768,1.4,5.865,2.439.792.75,2.883,3.976-4.819,3.91s-11.415.456-12.24-.781,1.194-9.131,1.194-9.131S1182.377,1808.625,1186.782,1808.227Z" transform="translate(-1179.161 -1807.968)"/></g><g transform="translate(49.929 175.163)"><path class="q" d="M1365.706,1791.7s-.55,3.819-.619,4.392-6.12-.338-6.12-.338l-.49-4.546S1364.95,1791.162,1365.706,1791.7Z" transform="translate(-1358.477 -1791.208)"/></g><g transform="translate(48.983 179.304)"><path class="r" d="M1362.268,1808.227a16.341,16.341,0,0,0,3.772,3.3c1.854,1,8.678,1.827,9.775,2.865.792.75,2.108,3.767-8.729,3.484-7.7-.2-11.415.456-12.241-.781s1.194-9.131,1.194-9.131S1357.758,1808.669,1362.268,1808.227Z" transform="translate(-1354.648 -1807.968)"/></g><g transform="translate(5.624 77.531)"><path class="s" d="M1192.347,1396.065s-5.686,9.034-5.262,17.2-2.061,17.081-2.915,25.612c-.952,9.51-4.849,32.024-4.991,37.111s.605,21.331.605,21.331l7.8.179s6.552-39.36,8.248-43.376,10.111-32.648,10.394-35.861S1192.347,1396.065,1192.347,1396.065Z" transform="translate(-1179.161 -1396.065)"/></g><g transform="translate(15.948 75.975)"><path class="s" d="M1253.741,1392.547s4.285,22.382,4.851,27.38.943,24.187,1.225,27.311,2.642,40.783,3.394,45.519h-9.973s-7.656-27.445-7.656-40.431-5.914-28.23-9.732-36.8-12.557-8.771-14.9-24.667C1220.947,1390.861,1250.563,1387.505,1253.741,1392.547Z" transform="translate(-1220.947 -1389.767)"/></g><g transform="translate(23.522 0.879)"><path class="m" d="M1256.375,1086.534s7.632-2.851,11.151,2.959,3.18,17.44-.667,18.871-9.626.682-11.6-2.953-3.748-8.891-3.663-12.4S1254.37,1087.548,1256.375,1086.534Z" transform="translate(-1251.598 -1085.834)"/></g><g transform="translate(25.696 16.43)"><path class="m" d="M1272.656,1156.018a6.6,6.6,0,0,0,.207,3.076c.525,1.015-9.887,1.041-9.887,1.041a68.6,68.6,0,0,0-2.448-10.186C1258.925,1145.284,1272.656,1156.018,1272.656,1156.018Z" transform="translate(-1260.397 -1148.774)"/></g><g transform="translate(22.887)"><path class="k" d="M1251.968,1099.881s.719,1.186,3.652.725,6.513-4.363,7.738-4.791,1.236-1.148,1.236-1.148l.767,1.12,1.3.082s-1.187-3.491.6-4.915-1.858-11.3-11.266-8.012c0,0-7.226,1.991-6.963,6.1S1250.351,1097.835,1251.968,1099.881Z" transform="translate(-1249.029 -1082.276)"/></g><g transform="translate(27.085 23.775)"><path class="t" d="M1277.715,1181.352s-.033-1.94-.912-2.126-9.7-1.034-10.782-.61v2.259S1268.1,1182.155,1277.715,1181.352Z" transform="translate(-1266.02 -1178.499)"/></g><g transform="translate(35.515 9.399)"><path class="m" d="M1302.881,1121.812c-.165-.689-1.917-2.659-2.589-.55s1.014,4.946,1.954,4.7S1303.3,1123.56,1302.881,1121.812Z" transform="translate(-1300.139 -1120.314)"/></g><g transform="translate(10.622 9.355)"><path class="k" d="M1242.141,1140.347c-6.05-.8-14.6-2.937-14.6-2.937l-11.694-.477s-10.733,2.363-14.96,4.272c-.4.181-.4,9.575-1.5,12.039l3.5,7.393s2.025,14.645,2.445,21.159c.193,2.99-4.175,28.039-4.175,28.039a80.729,80.729,0,0,0,12.662,2.258c7.981.88,27.924-.318,28.049-1.261s-3.862-35.1-4.039-36.871c-.271-2.715.936-17.143.936-17.143,1.843-1.429,18.023-8.94,22.437-12.854,1.181-1.047,6.167-5.9,7.585-7.579,5.019-5.935,9.134-11.026,9.634-12.124.569-.625-5.582-3.94-6.128-4.122-.478-.159-7.134,8.673-9.745,11.5a73.223,73.223,0,0,1-6,4.782S1245.926,1140.564,1242.141,1140.347Z" transform="translate(-1199.388 -1120.137)"/></g><g transform="translate(21.71 2.264)"><path class="k" d="M1248.68,1091.439s-9.731.761-.3,15.341Z" transform="translate(-1244.265 -1091.439)"/></g><path class="u" d="M1526.871,1087.123l.8-1.218-1.47.192Z" transform="translate(-1434.829 -1085.009)"/></g><g transform="translate(80.592 150.618)"><path class="v" d="M737.114,1365.97s4.734.285,6.061,1.023,10.278-2.083,10.443-2.734a1.472,1.472,0,0,0,0-.972H736.046Z" transform="translate(-695.743 -1300.307)"/><g transform="translate(9.25 43.916)"><path class="v" d="M621.233,1287s-1.51,11.868,0,13.423c5.769,5.941,27.151,5.47,27.151,5.47l-.008,2.416s-32.5,4.053-35.522-2.25c-3.629-7.575-2.22-19.928-2.22-19.928Z" transform="translate(-610.365 -1286.131)"/></g><g transform="translate(4.893 164.001)"><path class="w" d="M597.228,1777.992l1.931-2.2-3.486-3.646-2.944,2.062Z" transform="translate(-592.729 -1772.146)"/></g><g transform="translate(0.209 166.062)"><path class="x" d="M578.457,1780.489s3.978,3,5.085,3.117,1.628.614,1.5,2.3,1.617,8.786,2.835,8.9,5.365.136,6.118,2.87-13.157,2.159-14.019-.083-6.85-13.11-6.141-13.985S576.415,1780.768,578.457,1780.489Z" transform="translate(-573.773 -1780.489)"/></g><g transform="translate(7.002 78.76)"><path class="y" d="M624.681,1429.514s25.989,45.272,15.439,54.639c-4.137,3.673-8.119,7-13.844,11.911a141.207,141.207,0,0,0-11.072,10.174l-.181.189c-3.106,3.238-5.669,5.974-6.459,6.821-.028.028-.053.054-.075.079l-.088.094-2.893,2.76-4.244-3.73a125.764,125.764,0,0,0,7.524-11.77c3.807-7.176,10.2-15.61,13.164-17.964,5.07-4.031,6.464-4.822,6.464-8.676,0-4.134-23.82-27.226-23.82-27.226s-3.456-14.453,4.8-18.234C617.438,1424.893,624.681,1429.514,624.681,1429.514Z" transform="translate(-601.264 -1427.152)"/></g><path class="z" d="M598.284,1811.375a12.872,12.872,0,0,1,.188-3.418c.352-1.333-5.38-.568-5.38-.568s-.738,5.568-.525,6.843S598.284,1811.375,598.284,1811.375Z" transform="translate(-587.685 -1634.516)"/><g transform="translate(3.471 79.432)"><path class="w" d="M595.172,1523.889l-7.73,1.393s-.557-9.863-.457-17.42c.108-8.122-.3-14.509,2.18-20.974,2.32-6.047,1.792-8.352,2-12.479s-1.982-25.388-1.982-25.388-2.64-9.518,3.472-16.233c5.955-6.544,21.362-.027,21.362-.027S610.8,1461.8,603.1,1479.767c-2.181,5.084-1,8.173-3.784,16.029C599.314,1495.8,595.089,1512.928,595.172,1523.889Z" transform="translate(-586.973 -1429.872)"/></g><g transform="translate(8.096 19.069)"><path class="aa" d="M616,1191.4a8.921,8.921,0,0,0-.916,2.486,21.189,21.189,0,0,0-.424,2.652,31,31,0,0,0-.156,3.376s-10.311-2.245-8.619-4.649.7-9.693.7-9.693S617.332,1189.147,616,1191.4Z" transform="translate(-605.695 -1185.568)"/></g><g transform="translate(6.126 3.208)"><path class="m" d="M615.793,1123.2s2.639,2.292,1.46,8.9c0,0,.584,5.26,1.389,6.177s-2.162,1.256-2.474,1.917-.9,3.753-2.971,5.616-12.311-3.755-12.809-6.928-7.6-16.778,3.637-17.4S615.793,1123.2,615.793,1123.2Z" transform="translate(-597.719 -1121.374)"/></g><g transform="translate(5.392 29.204)"><path class="ab" d="M620.626,1251.142c-.209.662.578,10.823.506,11.7-.393,4.806.848,12.109,1.337,14.725.116.619.181.934.181.934-11.134,5.445-26.62,4.969-26.62,4.969.055-.421,2.217-5.653,2.272-6.054.917-6.537,2.271-9.521,1.9-13.941h0a27.645,27.645,0,0,0-2.147-8.3c-3.781-9.29-3.576-15.475-2.959-20.579a25.132,25.132,0,0,1,2.146-8.014l9.406,1.01c2,2.211,3.773,3.391,9.448,8.428C622.137,1241.383,623.193,1243.01,620.626,1251.142Z" transform="translate(-594.751 -1226.584)"/></g><g transform="translate(3.939 176.269)"><path class="y" d="M589.467,1823.8s5.441-1.547,5.6-1.7.2-.481.948-.181,1.061,1.438,1.8,1.8,5.227,1.673,7.686,2.883c.889.438,4.651,1.872,5.193,3.07s.374,3-6.089,2.572-13.533.485-14.948-.222S589.1,1825.671,589.467,1823.8Z" transform="translate(-588.871 -1821.799)"/></g><g transform="translate(5.896)"><path class="k" d="M616.833,1119.946s1.263-13.713-12.033-11.265-6.442,17.436-4.651,22.321c0,0-.218-7.587,6.184-7.834S614.058,1121.44,616.833,1119.946Z" transform="translate(-596.788 -1108.389)"/></g><g transform="translate(11.144 12.144)"><path class="aa" d="M621.287,1158.25c-.8-1.393-3.546-.65-3.232,1.471s2.513,4.238,3.243,3.212A4.114,4.114,0,0,0,621.287,1158.25Z" transform="translate(-618.03 -1157.54)"/></g><g transform="translate(5.392 38.641)"><path class="aa" d="M604.062,1265.935s-1.1,11.748.414,13.3c5.769,5.942,28.533,6.055,28.533,6.055l1.087,3.416s-33.837,2.3-36.856-4c-3.629-7.575-2.221-19.928-2.221-19.928Z" transform="translate(-594.751 -1264.781)"/></g><path class="k" d="M582.62,1117.132s-5.12-4.912-8.761.652,4.324,13.326,7.553,8.718A10.265,10.265,0,0,0,582.62,1117.132Z" transform="translate(-572.927 -1113.464)"/><path class="ac" d="M624.146,1208a21.2,21.2,0,0,0-.424,2.652c-3.426-1.561-5.987-6.331-5.987-6.331a26.372,26.372,0,0,0,6.41,3.678Z" transform="translate(-606.664 -1180.62)"/><rect class="ad" width="32.272" height="1.802" transform="translate(34.156 62.569)"/><rect class="ad" width="32.272" height="1.802" transform="translate(64.819 63.559) rotate(-63.225)"/><path class="aa" d="M727.106,1343.357s4.734-.363,6.061-1.3,10.278,2.653,10.443,3.481a2.352,2.352,0,0,1,0,1.237H726.038Z" transform="translate(-688.207 -1284.203)"/><path class="ab" d="M604.848,1221.1l.662-1.8,9.034,1.8v1.6Z" transform="translate(-596.961 -1191.898)"/><g transform="translate(5.658 32.506)"><path class="aa" d="M604.858,1247.393s.97-6.809-3.771-7.407-5.26,6.124-5.26,6.124Z" transform="translate(-595.827 -1239.948)"/></g></g><g transform="translate(332.029 142.353)"><g transform="translate(72.08 176.085)"><path class="ae" d="M1882.288,1788.1s.55,3.855.619,4.434,6.119-.341,6.119-.341l.49-4.589S1883.045,1787.557,1882.288,1788.1Z" transform="translate(-1882.288 -1787.604)"/></g><g transform="translate(62.134 180.265)"><path class="af" d="M1852.536,1804.782a16.39,16.39,0,0,1-3.771,3.336c-1.854,1.012-4.768,1.413-5.865,2.461-.792.757-2.883,4.013,4.818,3.948s11.414.46,12.238-.789-1.194-9.217-1.194-9.217S1856.94,1805.183,1852.536,1804.782Z" transform="translate(-1842.036 -1804.521)"/></g><g transform="translate(28.728 176.085)"><path class="ae" d="M1706.83,1788.1s.55,3.855.619,4.434,6.119-.341,6.119-.341l.49-4.589S1707.586,1787.557,1706.83,1788.1Z" transform="translate(-1706.83 -1787.604)"/></g><g transform="translate(15.225 180.265)"><path class="af" d="M1666.24,1804.782a16.389,16.389,0,0,1-3.771,3.336c-1.854,1.012-8.677,1.844-9.774,2.892-.791.756-2.107,3.8,8.728,3.517,7.7-.2,11.413.46,12.238-.789s-1.194-9.217-1.194-9.217S1670.748,1805.229,1666.24,1804.782Z" transform="translate(-1652.183 -1804.521)"/></g><g transform="translate(53.188 77.067)"><path class="k" d="M1822.571,1386.85s3.22,9.565,2.8,17.808,1.665,17.263,2.519,25.874c.952,9.6,4.848,32.326,4.99,37.461s-.6,21.532-.6,21.532l-7.8.181s-6.551-39.731-8.247-43.785-10.11-32.955-10.392-36.2S1822.571,1386.85,1822.571,1386.85Z" transform="translate(-1805.829 -1386.85)"/></g><g transform="translate(27.674 75.962)"><path class="k" d="M1712.032,1385.187s-4.284,22.593-4.85,27.638-.943,24.415-1.225,27.568-1.885,41.262-3.393,45.947h9.971s7.654-27.7,7.654-40.812,5.914-28.5,9.731-37.145,12.554-8.853,14.9-24.9C1744.821,1383.485,1715.209,1380.1,1712.032,1385.187Z" transform="translate(-1702.564 -1382.38)"/></g><g transform="translate(43.408 0.836)"><path class="m" d="M1780.243,1079.044s-7.86-2.936-11.484,3.047-3.275,17.961.687,19.434,9.914.7,11.942-3.041,3.86-9.156,3.772-12.773S1782.307,1080.088,1780.243,1079.044Z" transform="translate(-1766.244 -1078.323)"/></g><g transform="translate(47.702 16.428)"><path class="m" d="M1783.852,1148.669a6.6,6.6,0,0,1-.207,3.075c-.525,1.015,9.886,1.041,9.886,1.041a68.612,68.612,0,0,1,2.448-10.185C1797.58,1137.937,1783.852,1148.669,1783.852,1148.669Z" transform="translate(-1783.625 -1141.427)"/></g><g transform="translate(44.32)"><path class="k" d="M1785.671,1092.541s-.718,1.186-3.651.725-6.512-4.362-7.736-4.791-1.236-1.148-1.236-1.148l-.766,1.12-1.3.082s1.187-3.491-.6-4.914,1.857-11.3,11.264-8.011c0,0,7.224,1.991,6.962,6.1S1787.288,1090.495,1785.671,1092.541Z" transform="translate(-1769.936 -1074.939)"/></g><g transform="translate(47.103 23.771)"><path class="t" d="M1781.2,1174s.033-1.939.912-2.125,9.7-1.034,10.781-.61v2.259S1790.815,1174.8,1781.2,1174Z" transform="translate(-1781.202 -1171.146)"/></g><g transform="translate(47.394 9.397)"><path class="m" d="M1782.61,1114.469c.165-.689,1.917-2.659,2.588-.549s-1.014,4.945-1.953,4.7S1782.193,1116.217,1782.61,1114.469Z" transform="translate(-1782.38 -1112.972)"/></g><g transform="translate(14.377 26.147)"><path class="b" d="M1681.477,1181.24s-4.837,1.739-10.439,4.12a11.761,11.761,0,0,0-7.143,9.524c-.37,3.777-4.393,23.828-5.147,25.524s-9.674,28.95-9.988,29.516,7.28,3.717,7.782,3.466,8.637-24.857,9.453-26.679c0,0,4.682-14.754,4.808-16.954,0,0,.134,6.269.386,8.028s-4.164,35.923-4.038,36.865,20.065,2.14,28.045,1.26a97.7,97.7,0,0,0,14.42-2.716s-6.279-26.961-6.087-29.951c.42-6.512,2.6-18.78,2.6-18.78l6.507,12.267-8.329,21.428,1.907,6.512s15.477-23.388,15.98-25.525-.758-4.858-1.575-6.617-6.182-15.15-7.439-17.035-3.38-9.434-8.513-11.535a80.224,80.224,0,0,0-11.494-3.2Z" transform="translate(-1648.751 -1180.764)"/></g><g transform="translate(0 72.872)"><rect class="ag" width="37.641" height="26.259" transform="matrix(0.969, 0.248, -0.248, 0.969, 6.522, 0)"/></g><g transform="translate(9.722 100.869)"><path class="ah" d="M1631.4,1483.184s-1.042,1.683-1.422,2.164.936.782,1.5.3S1631.4,1483.184,1631.4,1483.184Z" transform="translate(-1629.907 -1483.184)"/></g><g transform="translate(11.129 94.74)"><path class="ai" d="M1643.279,1470.259a4.043,4.043,0,0,0,.748-1.054s.183-.768.347-1.306a3.834,3.834,0,0,1,.144-.41,7.4,7.4,0,0,0,.834-2.215c.161-1.039.615-5.7.615-5.7l-2.824-.711-2.269-.479s-4.9,4.889-5.164,5.841a2.489,2.489,0,0,0-.06.275,9.458,9.458,0,0,0,.071,1.945c-.008.162.016,1.784.393,2.088a1.584,1.584,0,0,0,1.5.361,3.785,3.785,0,0,0,1.949.734,2.353,2.353,0,0,0,2.043.38S1642.658,1470.656,1643.279,1470.259Z" transform="translate(-1635.603 -1458.38)"/></g><g transform="translate(14.387 74.156)"><path class="b" d="M1664.231,1378.029s-6.472,19.6-7.66,21.655a21.344,21.344,0,0,1-7.782-3.466l7.1-21.151Z" transform="translate(-1648.789 -1375.067)"/></g></g><g transform="translate(426.886 147.939)"><g transform="translate(71.114 89.519)"><path class="aj" d="M2264.457,1465.265s-.262-4.514-1.458-5.215-.5.7-.5.7.671,3.276.82,4.6A6.813,6.813,0,0,0,2264.457,1465.265Z" transform="translate(-2262.296 -1459.853)"/></g><path class="ak" d="M2142.263,1097.563s11.222-.933,10.915,10.872-2.178,13.581.006,21.923-10.941-4.737-10.941-4.737Z" transform="translate(-2100.792 -1097.546)"/><path class="aa" d="M2018.094,1210.886s-15.9,9.918-17.241,8.863c-1.88-1.474-6.988-14.058-6.988-14.058l-4,1.9s4.771,21.758,11.2,20.156,21.186-10.728,21.186-10.728Z" transform="translate(-1986.062 -1178.97)"/><path class="aa" d="M2121.094,1387.345s4.132,5.267,5.591,8.751,3.889,11.121,3.565,17.036-2.269,17.016-1.7,19.528,1.134,7.7,1.742,9.48,3.039,6.969,3.282,12.317-3.4,28.846-3.241,31.034-4.132.891-4.132.891-1.459-21.23-2.269-24.876-1.782-16.044-2.511-16.935-2.724-10.128-2.415-11.587-7.957-23.336-8.443-27.712-12.673-17.928-12.673-17.928A37.885,37.885,0,0,1,2121.094,1387.345Z" transform="translate(-2067.395 -1314.379)"/><path class="aa" d="M2078.2,1383.188a24.755,24.755,0,0,1-.454,3.018c-.243.81-5.834,21.473-6.4,29.414a156.4,156.4,0,0,1-2.268,16.373,35.159,35.159,0,0,0,.729,8.827c.486,1.458-2.431,35.9-2.674,36.706s1.945,1.053,3.484.81,9.318-25.281,8.832-29.495-.972-13.2.405-16.849,13.775-30.067,13.856-31.687S2099.076,1370.771,2078.2,1383.188Z" transform="translate(-2044.226 -1310.222)"/><path class="aa" d="M2200.818,1780.167a17.334,17.334,0,0,1-.835,3.56c-.436.763-1.635,4.65-2.18,5.377s-1.744,6.176,0,6.83,5.849,1.744,7.229-.436a8.963,8.963,0,0,0,1.344-6.031c-.218-1.671-1.875-9.341-1.853-10.1S2200.818,1780.167,2200.818,1780.167Z" transform="translate(-2141.938 -1610.747)"/><path class="af" d="M2196.887,1813.3s-.187,4.234,3.01,4.234,4.613-3.853,4.613-3.853,1.09,1.891,0,5.924-5.631,3.2-6.648,3.052S2192.024,1821.234,2196.887,1813.3Z" transform="translate(-2140.326 -1636.45)"/><path class="af" d="M2025.389,1767.846s-2.26,4.042-3.6,4.861c-1.673,1.02-4.918,4.295-6.052,4.446s-5.209.874-4.422,3.175c.645,1.886,10.366,1.615,11.462.67s4.375-4.337,5.7-4.261.832,4.892.832,4.892h1.437s.5-4.687.562-5.492c.179-2.385-1.521-4.139-1.6-5.5s-.154-2.376-.154-2.376Z" transform="translate(-2002.135 -1602.229)"/><path class="aa" d="M2030.832,1776.289s3.2,1.108,5.67-.31,7.2-3.57,8.873-3.585c0,0-.912-2.792-.932-3.1s-.119-1.782-.119-1.782l-4.138-.663a35.8,35.8,0,0,1-3.867,4.868A67.082,67.082,0,0,0,2030.832,1776.289Z" transform="translate(-2016.907 -1601.475)"/><path class="k" d="M2081.126,1389.719s-1.155,4.8-1.58,6.2-3.156,23.082-3.828,36.646c0,0,16.348,6.2,38.833,5.166,0,0,.547-24.916-1.52-31.966s-5.807-13.645-8.629-15.679C2101.89,1388.274,2081.126,1389.719,2081.126,1389.719Z" transform="translate(-2050.703 -1317.118)"/><g transform="translate(65.806 81.717)"><path class="aa" d="M2242.75,1431.33a33.148,33.148,0,0,1-.947,3.975c-.613,1.951-1.177,2.573-.932,3.691.185.844,1.14,1.477,1.382,1.207s.357-3.551,1.716-3.536-.406,4.063.4,3.766,3.924-2,3.728-3.657-1.442-2.848-1.362-5.318a5.312,5.312,0,0,0-.625-3.177Z" transform="translate(-2240.813 -1428.279)"/></g><g transform="translate(2.724 25.352)"><path class="m" d="M1985.5,1202.458s1.9,2.465,3.066,2.727,2.442-2.525,2.442-2.525l-.691-2.506Z" transform="translate(-1985.499 -1200.153)"/></g><g transform="translate(0 17.511)"><path class="m" d="M1981.883,1177.74s.908-2.844,1.033-3.283a5.4,5.4,0,0,0-1.126-2.951,26.159,26.159,0,0,0-2.114-2.845c-.179-.178-.278-.38-.87-.113a2.464,2.464,0,0,0-.945.818,1.5,1.5,0,0,0-1.269.7,1.306,1.306,0,0,0-1.137.905s-.812.047-.979.7a9.927,9.927,0,0,1,.408,1.705,20.826,20.826,0,0,0,2.316,5.184S1979.151,1180.245,1981.883,1177.74Z" transform="translate(-1974.476 -1168.419)"/></g><g transform="translate(1.261 22.704)"><path class="al" d="M1983.643,1189.872a7.346,7.346,0,0,0-1.092,1.594c-.113.458-2.971-1.245-2.971-1.245S1982.23,1188.719,1983.643,1189.872Z" transform="translate(-1979.58 -1189.437)"/></g><g transform="translate(0 17.682)"><path class="n" d="M1979.827,1169.47s1.581,3.35,1.051,3.639a.946.946,0,0,1-.9.074l-.083,1.679a.966.966,0,0,1-1.661.021s-.533,1.075-1.355-.06c0,0-.668.553-1.142.094a12.394,12.394,0,0,1-1.261-2.721s.048-.552.979-.7a1.284,1.284,0,0,1,1.137-.905,1.941,1.941,0,0,1,1.474-.921,1.461,1.461,0,0,1,1.61-.483A1.8,1.8,0,0,1,1979.827,1169.47Z" transform="translate(-1974.476 -1169.111)"/></g><g transform="translate(4.054 21.211)"><path class="m" d="M1995.24,1185.62a12.628,12.628,0,0,0-3.369-2.145c-.329-.1-.665-.145-.886.12s-.116.922.678,1.695a9.328,9.328,0,0,1,1.466,2.134S1994.177,1187.978,1995.24,1185.62Z" transform="translate(-1990.885 -1183.394)"/></g><g transform="translate(3.591 17.515)"><path class="m" d="M1989.009,1169.154a31.152,31.152,0,0,1,1.935,3.89c-.022.408,1.282-.287,1.276-.638a29.391,29.391,0,0,0-1.6-3.735A1,1,0,0,0,1989.009,1169.154Z" transform="translate(-1989.009 -1168.433)"/></g><g transform="translate(1.695 12.812)"><path class="m" d="M1985.244,1155.011s-3.119-5.819-3.578-5.606c-.667.308-.489,1.919,2.142,6.262C1986.366,1159.89,1985.244,1155.011,1985.244,1155.011Z" transform="translate(-1981.337 -1149.399)"/></g><path class="a" d="M2081.1,1233.985l-6.419-8.516s11.475-8.888,15.016-3.237C2089.7,1222.232,2089.954,1231.543,2081.1,1233.985Z" transform="translate(-2049.926 -1190.009)"/><path class="a" d="M2085.036,1229.307c.182,2.856,1.641,5.226,1.884,6.26s0,3.4.3,5.773,1.215,13.674.911,16.895,22.108,1.766,23.809.794c0,0-3.775-6.749-3.876-9.545-.035-.961-.608-3.95.973-6.138.833-1.155,2.381-4.83,3.925-7.518h0c.6-1.043,1.226-2.082,1.663-2.855h0a10.781,10.781,0,0,0,.889-2.206s1-12.4-1.738-13.8a13.93,13.93,0,0,0-6.867-1.762,19.426,19.426,0,0,1-4.437-.668l-6.259.668a36.183,36.183,0,0,1-5.592,1.52c-1.58.121-3.585,3.525-3.4,5.713S2084.853,1226.45,2085.036,1229.307Z" transform="translate(-2057.711 -1185.632)"/><g transform="translate(67.122 89.948)"><path class="aj" d="M2247.844,1461.608s-1.81.463-1.7,6.585l2.05-.342a21.083,21.083,0,0,1,.574-5.228S2248.661,1461.425,2247.844,1461.608Z" transform="translate(-2246.136 -1461.589)"/></g><g transform="translate(61.314 93.405)"><path class="aj" d="M2222.63,1480.113l15.962-4.529-.047,19.659-15.885,9.52Z" transform="translate(-2222.63 -1475.584)"/></g><g transform="translate(61.343 93.405)"><path class="aj" d="M2222.75,1504.762l2,.369,15.45-9.608-.191-19.849-1.327-.091Z" transform="translate(-2222.75 -1475.584)"/></g><path class="m" d="M2185.149,1219.775s4.97-.018,7.219,4.358,2.492,8.994,3.038,10.635,1.977,11.295,2.524,12.692,3.8,10.887,4.587,16.235a106.963,106.963,0,0,1,.956,10.773l-3.988-.126s-3.958-14.55-5.322-18.013c-1.166-2.961-1.612-8.131-2.281-9.954s-4.8-14.646-5.652-15.558S2180.908,1220.583,2185.149,1219.775Z" transform="translate(-2131.741 -1189.575)"/><path class="a" d="M2183.993,1237.483l10.129-3.19s-3.1-14.941-11.757-14.542C2175.422,1220.072,2183.993,1237.483,2183.993,1237.483Z" transform="translate(-2128.957 -1189.551)"/><path class="m" d="M2110.261,1102.126a9.537,9.537,0,0,0-10.95,7.545,23.218,23.218,0,0,0,.3,3.65c.305,1.625-1.631,6.094-1.29,6.364a10.224,10.224,0,0,0,1.825.735s1.053,5.244,2.833,5.4a14.816,14.816,0,0,0,12.545-6.389C2119.411,1113.506,2121.492,1103.964,2110.261,1102.126Z" transform="translate(-2067.691 -1100.912)"/><path class="m" d="M2127.6,1175.731s.137.734.265,1.814c.065.552.128,1.194.169,1.874a12.559,12.559,0,0,1-.589,5.442s3.486,2.16,7.221-3.033c0,0-.364-6.481,1.781-9.907S2127.6,1175.731,2127.6,1175.731Z" transform="translate(-2089.651 -1152.851)"/><path class="k" d="M2102.449,1106.321s4.187,3.615,8.621,4.755,6.782,6.121,6.782,6.121,7.846-7.825,3.111-15.421S2102.456,1097.569,2102.449,1106.321Z" transform="translate(-2070.83 -1097.562)"/><path class="ac" d="M2129.147,1189.49c.065.552.128,1.194.169,1.874a19.583,19.583,0,0,0,6.066-4.5A22.265,22.265,0,0,1,2129.147,1189.49Z" transform="translate(-2090.931 -1164.796)"/><path class="k" d="M2140.643,1150.361s4.536,12.2,3.992,15.132a15.977,15.977,0,0,1,6.676.894S2149.244,1144.627,2140.643,1150.361Z" transform="translate(-2099.587 -1136.587)"/><path class="m" d="M2132.814,1214.281s-1.494,9.147-7.024,8.114-1.336-7.736-1.336-7.736S2126.613,1212.721,2132.814,1214.281Z" transform="translate(-2086.25 -1184.981)"/></g><g transform="translate(307.187 34.342)"><path class="am" d="M1548.369,666.963a29.174,29.174,0,1,1-29.173-29.174A29.058,29.058,0,0,1,1548.369,666.963Z" transform="translate(-1490.022 -637.789)"/><path class="an" d="M1558.614,721.606a3.619,3.619,0,0,0-.49-.288.315.315,0,0,0-.027-.018l0,0a61.834,61.834,0,0,0-12.437-4.7h-.006c-1.343-.41-2.358-.676-2.707-.765l-.628-1a31.02,31.02,0,0,1-.05-3.512,12.44,12.44,0,0,0,2.512-6.05c.169.127.3-.15.3-.15-.094-.166,1.408-3.832,1.137-4.658-.153-.469-.465-.41-.708-.273.036-.214.074-.436.112-.672,0,0,.595-5.62-2.25-8.75a3.142,3.142,0,0,0-1.341-.353c-4.568-1.4-7.308-.774-9.025-.04-2.543,2.084-2.737,5.63-2.62,7.584.05.462.1.928.156,1.381a.134.134,0,0,0,0,.014c.021.181.043.356.064.532-.238-.147-.549-.222-.722.242-.3.815.807,4.475.945,4.7,0,0,.239.376.427.205,0,0,0-.007,0-.008a13.448,13.448,0,0,0,2.464,6.422c-.072,1.305-.26,2.84-.393,3.82l-1.13,1.18h0l-.179.06v-.007c-12.77,3.408-16.379,5.779-16.379,5.779a3.377,3.377,0,0,0-.979,1.513,29.176,29.176,0,0,0,45.423.931A12.009,12.009,0,0,0,1558.614,721.606Z" transform="translate(-1508.574 -676.79)"/></g><g transform="translate(130.89 34.452)"><g transform="translate(0 6.075)"><rect class="ao" width="0.522" height="49.299"/></g><g transform="translate(37.147 6.075)"><rect class="ao" width="0.522" height="49.299"/></g><g transform="translate(74.294 6.075)"><rect class="ao" width="0.522" height="49.299"/></g><g transform="translate(111.441 6.075)"><rect class="ao" width="0.522" height="49.299"/></g><g transform="translate(148.587 6.075)"><rect class="ao" width="0.522" height="49.299"/></g><rect class="ap" width="5.91" height="1.713" transform="translate(0.261 58.294)"/><rect class="aq" width="8.898" height="1.285" transform="translate(0.261)"/><rect class="aq" width="12.621" height="1.285" transform="translate(0.261 2.375)"/><rect class="aq" width="10.446" height="1.285" transform="translate(37.008)"/><rect class="aq" width="6.679" height="1.285" transform="translate(37.008 2.375)"/><rect class="aq" width="6.473" height="1.285" transform="translate(74.816)"/><rect class="aq" width="7.545" height="1.285" transform="translate(74.816 2.375)"/><rect class="aq" width="9.429" height="1.285" transform="translate(111.963)"/><rect class="aq" width="7.545" height="1.285" transform="translate(111.963 2.375)"/><rect class="aq" width="5.632" height="1.285" transform="translate(148.849)"/><rect class="aq" width="4.507" height="1.285" transform="translate(148.849 2.375)"/><rect class="ap" width="5.91" height="1.713" transform="translate(37.408 58.294)"/><rect class="ap" width="5.91" height="1.713" transform="translate(74.816 58.294)"/><rect class="ap" width="5.91" height="1.713" transform="translate(111.963 58.294)"/><rect class="ap" width="5.91" height="1.713" transform="translate(149.11 58.294)"/><g transform="translate(0.261 18.856)"><path class="k" d="M913.266,736.419c-11.586,0-21.658-4.505-32.158-9.2-12.963-5.8-26.367-11.793-44.226-10.151-11.4,1.048-18.562,5.225-24.877,8.911-5.718,3.337-11.125,6.271-18.446,6.522-11.833.405-15.938-4.134-16.007-4.411v-2.913h0c.015.05,2.6,5.145,15.994,5.085,6.6-.03,11.466-2.871,17.1-6.161,6.552-3.823,13.977-8.157,25.979-9.26,18.575-1.708,32.307,4.434,45.587,10.374,13.9,6.215,27.156,12.043,43.923,6.986v2.395A41.763,41.763,0,0,1,913.266,736.419Z" transform="translate(-777.552 -714.549)"/></g><g transform="translate(0.261 12.182)"><path class="ar" d="M843.72,715.522c-8.553,0-15.336-5.173-21.976-10.237-5.035-3.839-10.259-7.765-16.289-9.7-18.4-5.91-27.818,4.882-27.9,4.976v-3.283c.1-.112,1.779-2.074,6.638-3.946,4.424-1.7,11.845-3.065,22.083.138,6.486,2.029,11.872,6.136,17.081,10.109,10.567,8.058,19.693,15.017,35.542,4.117,12-8.256,23.319-16.123,34.453-19,10.89-2.811,22.243-.753,32.869,8.8l-.078,2.981c-22.574-20.393-41.795-7.473-65.732,8.99C854.067,713.833,848.6,715.521,843.72,715.522Z" transform="translate(-777.552 -687.535)"/></g></g></g></g></g></svg>