<svg xmlns="http://www.w3.org/2000/svg" width="44.64" height="31.248" viewBox="0 0 44.64 31.248"><defs><style>.a{fill:#f23801;}</style></defs><path class="a" d="M42.408,2.25H2.232A2.232,2.232,0,0,0,0,4.482V31.266A2.232,2.232,0,0,0,2.232,33.5H42.408a2.232,2.232,0,0,0,2.232-2.232V4.482A2.232,2.232,0,0,0,42.408,2.25ZM12.276,22.887v1.124a.558.558,0,0,1-.558.558H10.6a.558.558,0,0,1-.558-.558V22.876a3.994,3.994,0,0,1-2.188-.792.559.559,0,0,1-.04-.847l.82-.782a.572.572,0,0,1,.707-.051,1.679,1.679,0,0,0,.894.259H12.2a.877.877,0,0,0,.823-.92.91.91,0,0,0-.612-.888L9.27,17.914a3.157,3.157,0,0,1-2.2-3.026,3.106,3.106,0,0,1,2.976-3.144V10.62a.558.558,0,0,1,.558-.558h1.116a.558.558,0,0,1,.558.558v1.136a3.988,3.988,0,0,1,2.188.792.559.559,0,0,1,.04.847l-.82.782a.572.572,0,0,1-.707.051,1.673,1.673,0,0,0-.894-.259H10.122a.877.877,0,0,0-.823.92.91.91,0,0,0,.612.888l3.139.942a3.157,3.157,0,0,1,2.2,3.026A3.106,3.106,0,0,1,12.276,22.887Zm16.74-1.108a.558.558,0,0,1-.558.558H20.646a.558.558,0,0,1-.558-.558V20.664a.558.558,0,0,1,.558-.558h7.812a.558.558,0,0,1,.558.558Zm11.16,0a.558.558,0,0,1-.558.558h-5.58a.558.558,0,0,1-.558-.558V20.664a.558.558,0,0,1,.558-.558h5.58a.558.558,0,0,1,.558.558Zm0-6.7a.558.558,0,0,1-.558.558H20.646a.558.558,0,0,1-.558-.558V13.968a.558.558,0,0,1,.558-.558H39.618a.558.558,0,0,1,.558.558Z" transform="translate(0 -2.25)"/></svg>