<svg xmlns="http://www.w3.org/2000/svg" width="19.036" height="25.382" viewBox="0 0 19.036 25.382"><defs><style>.a{fill:#f23801;}</style></defs><path class="a" d="M11.1,6.742V0H1.19A1.187,1.187,0,0,0,0,1.19v23a1.187,1.187,0,0,0,1.19,1.19H17.847a1.187,1.187,0,0,0,1.19-1.19V7.932H12.294A1.193,1.193,0,0,1,11.1,6.742Zm3.173,11.7a.6.6,0,0,1-.595.595H5.354a.6.6,0,0,1-.595-.595v-.4a.6.6,0,0,1,.595-.595h8.328a.6.6,0,0,1,.595.595Zm0-3.173a.6.6,0,0,1-.595.595H5.354a.6.6,0,0,1-.595-.595v-.4a.6.6,0,0,1,.595-.595h8.328a.6.6,0,0,1,.595.595Zm0-3.569v.4a.6.6,0,0,1-.595.595H5.354a.6.6,0,0,1-.595-.595v-.4a.6.6,0,0,1,.595-.595h8.328A.6.6,0,0,1,14.277,11.7Zm4.759-5.656v.3H12.691V0h.3a1.189,1.189,0,0,1,.843.347l4.853,4.858A1.186,1.186,0,0,1,19.036,6.043Z"/></svg>