<svg xmlns="http://www.w3.org/2000/svg" width="13.07" height="14.938" viewBox="0 0 13.07 14.938"><defs><style>.a{fill:#f23801;}</style></defs><path class="a" d="M0,13.537a1.4,1.4,0,0,0,1.4,1.4H11.67a1.4,1.4,0,0,0,1.4-1.4V5.6H0ZM9.336,7.819a.351.351,0,0,1,.35-.35h1.167a.351.351,0,0,1,.35.35V8.986a.351.351,0,0,1-.35.35H9.686a.351.351,0,0,1-.35-.35Zm0,3.734a.351.351,0,0,1,.35-.35h1.167a.351.351,0,0,1,.35.35V12.72a.351.351,0,0,1-.35.35H9.686a.351.351,0,0,1-.35-.35ZM5.6,7.819a.351.351,0,0,1,.35-.35H7.119a.351.351,0,0,1,.35.35V8.986a.351.351,0,0,1-.35.35H5.952a.351.351,0,0,1-.35-.35Zm0,3.734a.351.351,0,0,1,.35-.35H7.119a.351.351,0,0,1,.35.35V12.72a.351.351,0,0,1-.35.35H5.952a.351.351,0,0,1-.35-.35ZM1.867,7.819a.351.351,0,0,1,.35-.35H3.384a.351.351,0,0,1,.35.35V8.986a.351.351,0,0,1-.35.35H2.217a.351.351,0,0,1-.35-.35Zm0,3.734a.351.351,0,0,1,.35-.35H3.384a.351.351,0,0,1,.35.35V12.72a.351.351,0,0,1-.35.35H2.217a.351.351,0,0,1-.35-.35Zm9.8-9.686h-1.4V.467A.468.468,0,0,0,9.8,0H8.869A.468.468,0,0,0,8.4.467v1.4H4.668V.467A.468.468,0,0,0,4.2,0H3.268A.468.468,0,0,0,2.8.467v1.4H1.4A1.4,1.4,0,0,0,0,3.268v1.4H13.07v-1.4A1.4,1.4,0,0,0,11.67,1.867Z"/></svg>