<svg xmlns="http://www.w3.org/2000/svg" width="13.5" height="18" viewBox="0 0 13.5 18"><defs><style>.a{fill:#f23801;}</style></defs><path class="a" d="M6.395,9a3.392,3.392,0,0,1-.07-1.649C6.62,7.355,6.592,8.652,6.395,9Zm-.06,1.659a16.222,16.222,0,0,1-1,2.2,12.945,12.945,0,0,1,2.211-.77A4.554,4.554,0,0,1,6.335,10.663ZM3.027,15.05c0,.028.464-.19,1.227-1.413A4.859,4.859,0,0,0,3.027,15.05ZM8.719,5.625H13.5V17.156a.842.842,0,0,1-.844.844H.844A.842.842,0,0,1,0,17.156V.844A.842.842,0,0,1,.844,0H7.875V4.781A.846.846,0,0,0,8.719,5.625Zm-.281,6.04a3.529,3.529,0,0,1-1.5-1.891,5.053,5.053,0,0,0,.218-2.257.88.88,0,0,0-1.68-.239,5.846,5.846,0,0,0,.285,2.707A33.013,33.013,0,0,1,4.324,13s0,0-.007,0c-.953.489-2.588,1.564-1.916,2.391a1.092,1.092,0,0,0,.756.352c.629,0,1.255-.633,2.148-2.173a20.039,20.039,0,0,1,2.777-.816,5.328,5.328,0,0,0,2.25.686.91.91,0,0,0,.693-1.526c-.489-.478-1.909-.341-2.588-.253Zm4.816-7.973L9.809.246A.843.843,0,0,0,9.211,0H9V4.5h4.5V4.286A.841.841,0,0,0,13.254,3.691Zm-2.605,8.975c.144-.095-.088-.418-1.5-.316C10.448,12.906,10.649,12.667,10.649,12.667Z"/></svg>