<svg xmlns="http://www.w3.org/2000/svg" width="20.025" height="22.783" viewBox="0 0 20.025 22.783"><path d="M47.908,11.7V9.567a6.909,6.909,0,0,0-4.895-6.6V2a2,2,0,1,0-4,0v.964a6.909,6.909,0,0,0-4.895,6.6V11.7a10.481,10.481,0,0,1-2.929,7.287.667.667,0,0,0,.482,1.129h6.074a3.338,3.338,0,0,0,6.54,0h6.074a.667.667,0,0,0,.482-1.129A10.481,10.481,0,0,1,47.908,11.7ZM40.343,2a.667.667,0,0,1,1.335,0v.7c-.22-.021-.442-.032-.667-.032s-.448.011-.667.032Zm.667,19.446a2.006,2.006,0,0,1-1.888-1.335H42.9A2.006,2.006,0,0,1,41.011,21.448ZM33.1,18.778A11.8,11.8,0,0,0,35.449,11.7V9.567a5.562,5.562,0,1,1,11.125,0V11.7a11.8,11.8,0,0,0,2.344,7.081Z" transform="translate(-30.998 0)"/><path d="M392.229,58.782a.667.667,0,0,0,1.335,0,9.947,9.947,0,0,0-2.932-7.08.667.667,0,1,0-.944.944A8.62,8.62,0,0,1,392.229,58.782Z" transform="translate(-373.54 -49.215)"/><path d="M31.667,59.45a.667.667,0,0,0,.667-.667,8.62,8.62,0,0,1,2.541-6.136.667.667,0,0,0-.944-.944A9.946,9.946,0,0,0,31,58.783.667.667,0,0,0,31.667,59.45Z" transform="translate(-31 -49.216)"/></svg>