<svg xmlns="http://www.w3.org/2000/svg" width="734" height="599.999" viewBox="0 0 734 599.999"><defs><style>.a{fill:#f5f5f5;opacity:0.7;}</style></defs><path class="a" d="M2175.786,2656H1489V2215.891a410.368,410.368,0,0,1,165.318-127.741c12.253-5.18,24.906-9.809,37.608-13.757,12.839-3.991,26.038-7.383,39.23-10.082a410.768,410.768,0,0,1,40.645-6.2,415.793,415.793,0,0,1,83.707,0,410.719,410.719,0,0,1,40.644,6.2c13.194,2.7,26.392,6.091,39.229,10.082,12.7,3.946,25.351,8.574,37.609,13.757a410.366,410.366,0,0,1,217.841,217.7c5.182,12.244,9.813,24.889,13.765,37.586,4,12.836,7.389,26.026,10.087,39.205a409.585,409.585,0,0,1,6.2,40.619,414.648,414.648,0,0,1-1.025,92.73A406.2,406.2,0,0,1,2175.786,2656Z" transform="translate(-1489 -2056)"/></svg>